<svg width="165" height="48" viewBox="0 0 165 48" fill="none" xmlns="http://www.w3.org/2000/svg">
<path d="M6.38728 42L0.891281 25.2H4.92328L9.69928 40.08H7.68328L12.6753 25.2H16.2753L21.0753 40.08H19.1313L24.0273 25.2H27.7473L22.2513 42H18.0753L13.8273 28.944H14.9313L10.5633 42H6.38728ZM34.3368 42.192C32.9608 42.192 31.7368 41.904 30.6648 41.328C29.6088 40.752 28.7688 39.968 28.1448 38.976C27.5368 37.968 27.2328 36.824 27.2328 35.544C27.2328 34.248 27.5368 33.104 28.1448 32.112C28.7688 31.104 29.6088 30.32 30.6648 29.76C31.7368 29.184 32.9608 28.896 34.3368 28.896C35.6968 28.896 36.9128 29.184 37.9848 29.76C39.0568 30.32 39.8968 31.096 40.5048 32.088C41.1128 33.08 41.4168 34.232 41.4168 35.544C41.4168 36.824 41.1128 37.968 40.5048 38.976C39.8968 39.968 39.0568 40.752 37.9848 41.328C36.9128 41.904 35.6968 42.192 34.3368 42.192ZM34.3368 39.12C34.9608 39.12 35.5208 38.976 36.0168 38.688C36.5128 38.4 36.9048 37.992 37.1928 37.464C37.4808 36.92 37.6248 36.28 37.6248 35.544C37.6248 34.792 37.4808 34.152 37.1928 33.624C36.9048 33.096 36.5128 32.688 36.0168 32.4C35.5208 32.112 34.9608 31.968 34.3368 31.968C33.7128 31.968 33.1528 32.112 32.6568 32.4C32.1608 32.688 31.7608 33.096 31.4568 33.624C31.1688 34.152 31.0248 34.792 31.0248 35.544C31.0248 36.28 31.1688 36.92 31.4568 37.464C31.7608 37.992 32.1608 38.4 32.6568 38.688C33.1528 38.976 33.7128 39.12 34.3368 39.12ZM43.4194 42V29.088H46.9954V32.736L46.4914 31.68C46.8754 30.768 47.4914 30.08 48.3394 29.616C49.1874 29.136 50.2194 28.896 51.4354 28.896V32.352C51.2754 32.336 51.1314 32.328 51.0034 32.328C50.8754 32.312 50.7394 32.304 50.5954 32.304C49.5714 32.304 48.7394 32.6 48.0994 33.192C47.4754 33.768 47.1634 34.672 47.1634 35.904V42H43.4194ZM56.281 39.36L56.377 34.8L62.401 29.088H66.865L61.081 34.968L59.137 36.552L56.281 39.36ZM53.185 42V24.192H56.929V42H53.185ZM62.809 42L58.441 36.576L60.793 33.672L67.345 42H62.809ZM72.0618 42V28.368H66.6858V25.2H81.3258V28.368H75.9498V42H72.0618ZM87.7493 42.192C86.2773 42.192 84.9813 41.904 83.8613 41.328C82.7573 40.752 81.9013 39.968 81.2933 38.976C80.6853 37.968 80.3813 36.824 80.3813 35.544C80.3813 34.248 80.6773 33.104 81.2693 32.112C81.8773 31.104 82.7013 30.32 83.7413 29.76C84.7813 29.184 85.9573 28.896 87.2693 28.896C88.5333 28.896 89.6693 29.168 90.6773 29.712C91.7013 30.24 92.5093 31.008 93.1013 32.016C93.6933 33.008 93.9893 34.2 93.9893 35.592C93.9893 35.736 93.9813 35.904 93.9653 36.096C93.9493 36.272 93.9333 36.44 93.9173 36.6H83.4293V34.416H91.9493L90.5093 35.064C90.5093 34.392 90.3733 33.808 90.1013 33.312C89.8293 32.816 89.4533 32.432 88.9733 32.16C88.4933 31.872 87.9333 31.728 87.2933 31.728C86.6533 31.728 86.0853 31.872 85.5893 32.16C85.1093 32.432 84.7333 32.824 84.4613 33.336C84.1893 33.832 84.0533 34.424 84.0533 35.112V35.688C84.0533 36.392 84.2053 37.016 84.5093 37.56C84.8293 38.088 85.2693 38.496 85.8293 38.784C86.4053 39.056 87.0773 39.192 87.8453 39.192C88.5333 39.192 89.1333 39.088 89.6453 38.88C90.1733 38.672 90.6533 38.36 91.0853 37.944L93.0773 40.104C92.4853 40.776 91.7413 41.296 90.8453 41.664C89.9493 42.016 88.9173 42.192 87.7493 42.192ZM103.55 42V39.48L103.31 38.928V34.416C103.31 33.616 103.062 32.992 102.566 32.544C102.086 32.096 101.342 31.872 100.334 31.872C99.6463 31.872 98.9663 31.984 98.2943 32.208C97.6383 32.416 97.0783 32.704 96.6143 33.072L95.2703 30.456C95.9743 29.96 96.8223 29.576 97.8143 29.304C98.8063 29.032 99.8143 28.896 100.838 28.896C102.806 28.896 104.334 29.36 105.422 30.288C106.51 31.216 107.054 32.664 107.054 34.632V42H103.55ZM99.6143 42.192C98.6063 42.192 97.7423 42.024 97.0223 41.688C96.3023 41.336 95.7503 40.864 95.3663 40.272C94.9823 39.68 94.7903 39.016 94.7903 38.28C94.7903 37.512 94.9743 36.84 95.3423 36.264C95.7263 35.688 96.3263 35.24 97.1423 34.92C97.9583 34.584 99.0223 34.416 100.334 34.416H103.766V36.6H100.742C99.8623 36.6 99.2543 36.744 98.9183 37.032C98.5983 37.32 98.4383 37.68 98.4383 38.112C98.4383 38.592 98.6223 38.976 98.9903 39.264C99.3743 39.536 99.8943 39.672 100.55 39.672C101.174 39.672 101.734 39.528 102.23 39.24C102.726 38.936 103.086 38.496 103.31 37.92L103.886 39.648C103.614 40.48 103.118 41.112 102.398 41.544C101.678 41.976 100.75 42.192 99.6143 42.192ZM126.479 28.896C127.503 28.896 128.407 29.104 129.191 29.52C129.991 29.92 130.615 30.544 131.063 31.392C131.527 32.224 131.759 33.296 131.759 34.608V42H128.015V35.184C128.015 34.144 127.799 33.376 127.367 32.88C126.935 32.384 126.327 32.136 125.543 32.136C124.999 32.136 124.511 32.264 124.079 32.52C123.647 32.76 123.311 33.128 123.071 33.624C122.831 34.12 122.711 34.752 122.711 35.52V42H118.967V35.184C118.967 34.144 118.751 33.376 118.319 32.88C117.903 32.384 117.303 32.136 116.519 32.136C115.975 32.136 115.487 32.264 115.055 32.52C114.623 32.76 114.287 33.128 114.047 33.624C113.807 34.12 113.687 34.752 113.687 35.52V42H109.943V29.088H113.519V32.616L112.847 31.584C113.295 30.704 113.927 30.04 114.743 29.592C115.575 29.128 116.519 28.896 117.575 28.896C118.759 28.896 119.791 29.2 120.671 29.808C121.567 30.4 122.159 31.312 122.447 32.544L121.127 32.184C121.559 31.176 122.247 30.376 123.191 29.784C124.151 29.192 125.247 28.896 126.479 28.896ZM138.959 42.192C137.855 42.192 136.791 42.064 135.767 41.808C134.759 41.536 133.959 41.2 133.367 40.8L134.615 38.112C135.207 38.48 135.903 38.784 136.703 39.024C137.519 39.248 138.319 39.36 139.103 39.36C139.967 39.36 140.575 39.256 140.927 39.048C141.295 38.84 141.479 38.552 141.479 38.184C141.479 37.88 141.335 37.656 141.047 37.512C140.775 37.352 140.407 37.232 139.943 37.152C139.479 37.072 138.967 36.992 138.407 36.912C137.863 36.832 137.311 36.728 136.751 36.6C136.191 36.456 135.679 36.248 135.215 35.976C134.751 35.704 134.375 35.336 134.087 34.872C133.815 34.408 133.679 33.808 133.679 33.072C133.679 32.256 133.911 31.536 134.375 30.912C134.855 30.288 135.543 29.8 136.439 29.448C137.335 29.08 138.407 28.896 139.655 28.896C140.535 28.896 141.431 28.992 142.343 29.184C143.255 29.376 144.015 29.656 144.623 30.024L143.375 32.688C142.751 32.32 142.119 32.072 141.479 31.944C140.855 31.8 140.247 31.728 139.655 31.728C138.823 31.728 138.215 31.84 137.831 32.064C137.447 32.288 137.255 32.576 137.255 32.928C137.255 33.248 137.391 33.488 137.663 33.648C137.951 33.808 138.327 33.936 138.791 34.032C139.255 34.128 139.759 34.216 140.303 34.296C140.863 34.36 141.423 34.464 141.983 34.608C142.543 34.752 143.047 34.96 143.495 35.232C143.959 35.488 144.335 35.848 144.623 36.312C144.911 36.76 145.055 37.352 145.055 38.088C145.055 38.888 144.815 39.6 144.335 40.224C143.855 40.832 143.159 41.312 142.247 41.664C141.351 42.016 140.255 42.192 138.959 42.192Z" fill="#4D27BA"/>
<circle cx="155.5" cy="9.5" r="9.5" fill="#4D27BA"/>
</svg>
